{"asset":{"version":"2.0","generator":"VECTARY"},"nodes":[{"translation":[0,0,0],"scale":[0.001,0.001,0.001],"rotation":[-0.7071067811865475,0,0,0.7071067811865476],"name":"Inactive - Plane","mesh":0}],"materials":[{"pbrMetallicRoughness":{"baseColorFactor":[1,1,1,1],"baseColorTexture":{"index":0,"extensions":{"KHR_texture_transform":{"offset":[0,0],"scale":[1,1],"rotation":0}},"texCoord":0},"metallicFactor":0,"roughnessFactor":1},"name":"","emissiveTexture":{"index":1,"extensions":{"KHR_texture_transform":{"offset":[0,0],"scale":[1,1],"rotation":0}},"texCoord":0},"emissiveFactor":[0,0,0],"alphaMode":"BLEND","doubleSided":true}],"textures":[{"sampler":0,"source":0},{"sampler":1,"source":1}],"images":[{"uri":"Inactive&Inactive.png","mimeType":"image/png"},{"uri":"Inactive.jpg","mimeType":"image/jpeg"}],"samplers":[{"wrapS":10497,"wrapT":10497},{"wrapS":33071,"wrapT":33071}],"meshes":[{"primitives":[{"mode":4,"attributes":{"POSITION":1,"NORMAL":2,"TEXCOORD_0":3},"material":0,"indices":0}]}],"accessors":[{"bufferView":0,"byteOffset":0,"componentType":5125,"count":150,"type":"SCALAR"},{"bufferView":1,"byteOffset":0,"componentType":5126,"count":36,"max":[26.5,85.5,0.20000000298023224],"min":[-26.5,-85.5,0.20000000298023224],"type":"VEC3"},{"bufferView":2,"byteOffset":0,"componentType":5126,"count":36,"type":"VEC3"},{"bufferView":3,"byteOffset":0,"componentType":5126,"count":36,"type":"VEC2"}],"bufferViews":[{"buffer":0,"byteOffset":0,"byteLength":600,"target":34963},{"buffer":0,"byteOffset":600,"byteLength":432,"target":34962},{"buffer":0,"byteOffset":1032,"byteLength":432,"target":34962},{"buffer":0,"byteOffset":1464,"byteLength":288,"target":34962}],"scene":0,"scenes":[{"nodes":[0],"name":"Project Name"}],"extensionsUsed":["KHR_texture_transform"],"buffers":[{"byteLength":1752,"uri":"ProjectName.bin"}]}