{"asset":{"version":"2.0","generator":"VECTARY"},"nodes":[{"translation":[0,0,0],"scale":[0.001,0.001,0.001],"rotation":[-0.7071067811865475,0,0,0.7071067811865476],"name":"salif","mesh":0}],"materials":[{"pbrMetallicRoughness":{"baseColorFactor":[0.6055203909410926,0.6055203909410926,0.6055203909410926,1],"metallicFactor":0,"roughnessFactor":0.7},"name":"Aluminium","emissiveFactor":[0,0,0],"alphaMode":"OPAQUE","doubleSided":false}],"meshes":[{"primitives":[{"mode":4,"attributes":{"POSITION":1,"NORMAL":2},"material":0,"indices":0}]}],"accessors":[{"bufferView":0,"byteOffset":0,"componentType":5125,"count":20247,"type":"SCALAR"},{"bufferView":1,"byteOffset":0,"componentType":5126,"count":4161,"max":[5.192600250244141,4.5329999923706055,29.99650001525879],"min":[-5.192600250244141,-4.5329999923706055,0],"type":"VEC3"},{"bufferView":2,"byteOffset":0,"componentType":5126,"count":4161,"type":"VEC3"}],"bufferViews":[{"buffer":0,"byteOffset":0,"byteLength":80988,"target":34963},{"buffer":0,"byteOffset":80988,"byteLength":49932,"target":34962},{"buffer":0,"byteOffset":130920,"byteLength":49932,"target":34962}],"scene":0,"scenes":[{"nodes":[0],"name":"marker-test"}],"extensionsUsed":["KHR_texture_transform"],"buffers":[{"byteLength":180852,"uri":"marker-test.bin"}]}