{"asset":{"version":"2.0","generator":"VECTARY"},"nodes":[{"translation":[0,0,0],"scale":[0.001,0.001,0.001],"rotation":[-0.7071067811865475,0,0,0.7071067811865476],"name":"Inactive","children":[1,2,3]},{"translation":[0,0,0],"scale":[1,1,1],"rotation":[0,0,0,1],"name":"Path","mesh":0},{"translation":[0,0,0.002],"scale":[1,1,1],"rotation":[0,0,0,1],"name":"Path - Stroke","mesh":1},{"translation":[0,0,0.004],"scale":[1,1,1],"rotation":[0,0,0,1],"name":"Path","mesh":2}],"materials":[{"pbrMetallicRoughness":{"baseColorFactor":[1,1,1,1],"metallicFactor":0,"roughnessFactor":1},"name":"","emissiveFactor":[0,0,0],"alphaMode":"OPAQUE","doubleSided":true},{"pbrMetallicRoughness":{"baseColorFactor":[0.598941789493296,0.6320426176206414,0.6455552724449345,1],"metallicFactor":0,"roughnessFactor":1},"name":"","emissiveFactor":[0,0,0],"alphaMode":"OPAQUE","doubleSided":true},{"pbrMetallicRoughness":{"baseColorFactor":[0.04145189161146246,0.04777575355617064,0.052841625522879035,1],"metallicFactor":0,"roughnessFactor":1},"name":"","emissiveFactor":[0,0,0],"alphaMode":"OPAQUE","doubleSided":true}],"meshes":[{"primitives":[{"mode":4,"attributes":{"POSITION":1,"NORMAL":2},"material":0,"indices":0}]},{"primitives":[{"mode":4,"attributes":{"POSITION":4,"NORMAL":5},"material":1,"indices":3}]},{"primitives":[{"mode":4,"attributes":{"POSITION":7,"NORMAL":8},"material":2,"indices":6}]}],"accessors":[{"bufferView":0,"byteOffset":0,"componentType":5125,"count":141,"type":"SCALAR"},{"bufferView":1,"byteOffset":0,"componentType":5126,"count":50,"max":[26,85,0.20000000298023224],"min":[-26,63.50170135498047,0.20000000298023224],"type":"VEC3"},{"bufferView":2,"byteOffset":0,"componentType":5126,"count":50,"type":"VEC3"},{"bufferView":3,"byteOffset":0,"componentType":5125,"count":312,"type":"SCALAR"},{"bufferView":4,"byteOffset":0,"componentType":5126,"count":112,"max":[26.5,85.5,0.20000000298023224],"min":[-26.5,63.4999885559082,0.20000000298023224],"type":"VEC3"},{"bufferView":5,"byteOffset":0,"componentType":5126,"count":112,"type":"VEC3"},{"bufferView":6,"byteOffset":0,"componentType":5125,"count":1032,"type":"SCALAR"},{"bufferView":7,"byteOffset":0,"componentType":5126,"count":356,"max":[18.06209945678711,79.05599975585938,0.20000000298023224],"min":[-18.145309448242188,70.34400177001953,0.20000000298023224],"type":"VEC3"},{"bufferView":8,"byteOffset":0,"componentType":5126,"count":356,"type":"VEC3"}],"bufferViews":[{"buffer":0,"byteOffset":0,"byteLength":564,"target":34963},{"buffer":0,"byteOffset":564,"byteLength":600,"target":34962},{"buffer":0,"byteOffset":1164,"byteLength":600,"target":34962},{"buffer":0,"byteOffset":1764,"byteLength":1248,"target":34963},{"buffer":0,"byteOffset":3012,"byteLength":1344,"target":34962},{"buffer":0,"byteOffset":4356,"byteLength":1344,"target":34962},{"buffer":0,"byteOffset":5700,"byteLength":4128,"target":34963},{"buffer":0,"byteOffset":9828,"byteLength":4272,"target":34962},{"buffer":0,"byteOffset":14100,"byteLength":4272,"target":34962}],"scene":0,"scenes":[{"nodes":[0],"name":"Project Name"}],"extensionsUsed":["KHR_texture_transform"],"buffers":[{"byteLength":18372,"uri":"ProjectName.bin"}]}