{"asset":{"version":"2.0","generator":"VECTARY"},"nodes":[{"translation":[0,0,0],"scale":[0.001,0.001,0.001],"rotation":[-0.7071067811865475,0,0,0.7071067811865476],"name":"pin1","children":[1,2,3,4]},{"translation":[0,0,0],"scale":[1,1,1],"rotation":[0.7071067811865475,0,0,0.7071067811865476],"name":"Line - Stroke","mesh":0},{"translation":[0,-0.002,4.440892098500626e-19],"scale":[1,1,1],"rotation":[0.7071067811865475,0,0,0.7071067811865476],"name":"Path","mesh":1},{"translation":[0,-0.004,8.881784197001253e-19],"scale":[1,1,1],"rotation":[0.7071067811865475,0,0,0.7071067811865476],"name":"Path - Stroke","mesh":2},{"translation":[0,-0.006,1.3322676295501879e-18],"scale":[1,1,1],"rotation":[0.7071067811865475,0,0,0.7071067811865476],"name":"Path","mesh":3}],"materials":[{"pbrMetallicRoughness":{"baseColorFactor":[0.598941789493296,0.6320426176206414,0.6455552724449345,1],"metallicFactor":0,"roughnessFactor":1},"name":"","emissiveFactor":[0,0,0],"alphaMode":"OPAQUE","doubleSided":true},{"pbrMetallicRoughness":{"baseColorFactor":[1,1,1,1],"metallicFactor":0,"roughnessFactor":1},"name":"","emissiveFactor":[0,0,0],"alphaMode":"OPAQUE","doubleSided":true},{"pbrMetallicRoughness":{"baseColorFactor":[0.598941789493296,0.6320426176206414,0.6455552724449345,1],"metallicFactor":0,"roughnessFactor":1},"name":"","emissiveFactor":[0,0,0],"alphaMode":"OPAQUE","doubleSided":true},{"pbrMetallicRoughness":{"baseColorFactor":[0.04145189161146246,0.04777575355617064,0.052841625522879035,1],"metallicFactor":0,"roughnessFactor":1},"name":"","emissiveFactor":[0,0,0],"alphaMode":"OPAQUE","doubleSided":true}],"meshes":[{"primitives":[{"mode":4,"attributes":{"POSITION":1,"NORMAL":2},"material":0,"indices":0}]},{"primitives":[{"mode":4,"attributes":{"POSITION":4,"NORMAL":5},"material":1,"indices":3}]},{"primitives":[{"mode":4,"attributes":{"POSITION":7,"NORMAL":8},"material":2,"indices":6}]},{"primitives":[{"mode":4,"attributes":{"POSITION":10,"NORMAL":11},"material":3,"indices":9}]}],"accessors":[{"bufferView":0,"byteOffset":0,"componentType":5125,"count":6,"type":"SCALAR"},{"bufferView":1,"byteOffset":0,"componentType":5126,"count":4,"max":[0.14674022793769836,52.9752197265625,0.20000000298023224],"min":[-0.853259801864624,-0.024779392406344414,0.20000000298023224],"type":"VEC3"},{"bufferView":2,"byteOffset":0,"componentType":5126,"count":4,"type":"VEC3"},{"bufferView":3,"byteOffset":0,"componentType":5125,"count":132,"type":"SCALAR"},{"bufferView":4,"byteOffset":0,"componentType":5126,"count":48,"max":[24.646739959716797,73.4752197265625,0.20000000298023224],"min":[-27.353260040283203,52.4752197265625,0.20000000298023224],"type":"VEC3"},{"bufferView":5,"byteOffset":0,"componentType":5126,"count":48,"type":"VEC3"},{"bufferView":6,"byteOffset":0,"componentType":5125,"count":276,"type":"SCALAR"},{"bufferView":7,"byteOffset":0,"componentType":5126,"count":92,"max":[25.146739959716797,73.9752197265625,0.20000000298023224],"min":[-27.853260040283203,51.9752197265625,0.20000000298023224],"type":"VEC3"},{"bufferView":8,"byteOffset":0,"componentType":5126,"count":92,"type":"VEC3"},{"bufferView":9,"byteOffset":0,"componentType":5125,"count":1032,"type":"SCALAR"},{"bufferView":10,"byteOffset":0,"componentType":5126,"count":356,"max":[16.708839416503906,67.53121948242188,0.20000000298023224],"min":[-19.49856948852539,58.81922149658203,0.20000000298023224],"type":"VEC3"},{"bufferView":11,"byteOffset":0,"componentType":5126,"count":356,"type":"VEC3"}],"bufferViews":[{"buffer":0,"byteOffset":0,"byteLength":24,"target":34963},{"buffer":0,"byteOffset":24,"byteLength":48,"target":34962},{"buffer":0,"byteOffset":72,"byteLength":48,"target":34962},{"buffer":0,"byteOffset":120,"byteLength":528,"target":34963},{"buffer":0,"byteOffset":648,"byteLength":576,"target":34962},{"buffer":0,"byteOffset":1224,"byteLength":576,"target":34962},{"buffer":0,"byteOffset":1800,"byteLength":1104,"target":34963},{"buffer":0,"byteOffset":2904,"byteLength":1104,"target":34962},{"buffer":0,"byteOffset":4008,"byteLength":1104,"target":34962},{"buffer":0,"byteOffset":5112,"byteLength":4128,"target":34963},{"buffer":0,"byteOffset":9240,"byteLength":4272,"target":34962},{"buffer":0,"byteOffset":13512,"byteLength":4272,"target":34962}],"scene":0,"scenes":[{"nodes":[0],"name":"marker-test"}],"extensionsUsed":["KHR_texture_transform"],"buffers":[{"byteLength":17784,"uri":"./marker-test.bin"}]}